#!OML:ASF F:\VICON\USERDATA\INSTALL\Justin_Nancy\Justin_Nancy.ASF
:FULLY-SPECIFIED
:DEGREES
126
root 6.39057 17.0169 0.0582662 -16.3165 -76.1316 26.0954
lowerback 4.99164 1.0925 -0.761478
upperback -1.28458 1.40902 0.0287175
thorax -4.14475 0.71909 0.336863
lowerneck -16.7846 -6.14048 -10.719
upperneck 21.1968 -7.52243 7.00689
head 10.2228 -3.60872 3.18572
rclavicle -5.34731e-014 2.38542e-015
rhumerus -27.2753 11.1971 -96.304
rradius 59.0276
rwrist 1.42675
rhand -13.8833 15.7433
rfingers 7.12502
rthumb 12.2416 -13.8784
lclavicle -5.34731e-014 2.38542e-015
lhumerus -52.8149 33.8585 58.4913
lradius 16.5811
lwrist -18.1222
lhand -18.3633 20.7019
lfingers 7.12502
lthumb 7.91969 50.5336
rfemur 0.830077 5.51629 33.0879
rtibia 18.6166
rfoot -17.9628 -0.707513
rtoes 12.4278
lfemur -33.8523 2.94261 -10.2226
ltibia 44.4583
lfoot -8.74795 5.32047
ltoes -38.1559
127
root 6.26056 17.032 0.215687 -18.4249 -77.1482 28.5363
lowerback 4.97226 1.0204 -0.757053
upperback -1.35086 1.31581 0.0978345
thorax -4.20292 0.673909 0.413287
lowerneck -17.033 -5.96723 -10.825
upperneck 21.2107 -7.20091 6.93563
head 10.2439 -3.47153 3.2222
rclavicle 1.25234e-014 -3.18055e-015
rhumerus -27.3157 11.606 -96.1926
rradius 59.8993
rwrist 0.451161
rhand -14.0652 15.6266
rfingers 7.12502
rthumb 12.0662 -14.0055
lclavicle 1.25234e-014 -3.18055e-015
lhumerus -54.0397 35.5026 57.2221
lradius 16.5397
lwrist -20.3029
lhand -19.0452 20.8715
lfingers 7.12502
lthumb 7.2615 50.7269
rfemur 1.78539 5.55767 32.6544
rtibia 17.6647
rfoot -17.7811 -1.16142
rtoes 13.7196
lfemur -33.958 -1.09184 -7.46885
ltibia 41.9785
lfoot -10.3485 4.27069
ltoes -10.3965
128
root 6.10452 17.0282 0.387043 -28.3288 -77.6654 38.5156
lowerback 4.91117 1.05269 -2.02423
upperback -1.17224 1.26356 -0.266387
thorax -4.00307 0.672363 0.755373
lowerneck -17.176 -5.72027 -11.1437
upperneck 21.058 -6.73326 6.9401
head 10.1818 -3.27596 3.34367
rclavicle -1.0138e-014 7.95139e-015
rhumerus -27.2234 11.8204 -95.96
rradius 60.5811
rwrist -0.686212
rhand -14.0553 15.4717
rfingers 7.12502
rthumb 12.0757 -14.1599
lclavicle -1.0138e-014 7.95139e-015
lhumerus -55.3451 37.0627 56.0516
lradius 16.7933
lwrist -22.09
lhand -19.4362 20.7689
lfingers 7.12502
lthumb 6.88413 50.637
rfemur 3.44345 4.98823 30.4055
rtibia 16.5598
rfoot -18.1696 -1.50723
rtoes 11.5609
lfemur -33.6485 0.334105 -9.44437
ltibia 39.3541
lfoot -10.4672 4.3769
ltoes -8.79986
129
root 5.97493 17.0083 0.542487 -30.2534 -78.1922 40.6578
lowerback 4.93856 0.889666 -1.803
upperback -1.19956 1.06405 -0.155854
thorax -4.03875 0.569969 0.761553
lowerneck -17.2879 -5.57612 -11.5831
upperneck 20.9411 -6.43011 7.1301
head 10.1534 -3.14586 3.52752
rclavicle -3.24019e-014 -3.18055e-015
rhumerus -27.2354 11.7827 -95.6464
rradius 61.2124
rwrist -1.28421
rhand -14.2285 15.2726
rfingers 7.12502
rthumb 11.9088 -14.3687
lclavicle -3.24019e-014 -3.18055e-015
lhumerus -55.2566 37.2986 56.4164
lradius 16.7997
lwrist -22.1861
lhand -20.1996 20.9297
lfingers 7.12502
lthumb 6.14712 50.8205
rfemur 4.69544 4.86065 30.1443
rtibia 15.1235
rfoot -18.0609 -2.88684
rtoes 10.5458
lfemur -34.1642 0.296407 -9.33203
ltibia 36.8527
lfoot -10.3566 5.87974
ltoes -6.73322
130
root 5.85089 16.9789 0.694153 -28.9539 -78.7659 39.4596
lowerback 5.22256 0.6642 -1.09147
upperback -1.27017 0.817815 0.144965
thorax -4.2594 0.435762 0.690032
lowerneck -17.4375 -5.42778 -11.7929
upperneck 20.8401 -6.13042 7.11769
head 10.1209 -3.02055 3.5996
rclavicle 3.65764e-014 -5.56597e-015
rhumerus -27.4036 11.6727 -95.2392
rradius 61.8074
rwrist -1.38424
rhand -14.615 15.2492
rfingers 7.12502
rthumb 11.5361 -14.4133
lclavicle 3.65764e-014 -5.56597e-015
lhumerus -54.621 37.274 57.1015
lradius 16.5822
lwrist -22.6988
lhand -21.2955 21.2009
lfingers 7.12502
lthumb 5.08899 51.1198
rfemur 5.82878 4.32737 30.5362
rtibia 13.7862
rfoot -17.7475 -4.01063
rtoes 10.4378
lfemur -34.7972 -2.05739 -8.02691
ltibia 34.6045
lfoot -10.5401 9.76939
ltoes -9.0553
131
root 5.71999 16.9529 0.844332 -27.3776 -79.2466 38.0248
lowerback 5.38938 0.475891 -0.185437
upperback -1.31319 0.631557 0.230084
thorax -4.38513 0.321259 0.284395
lowerneck -17.7671 -5.34019 -11.3421
upperneck 20.8438 -5.99837 6.74462
head 10.1414 -2.95775 3.40629
rclavicle 1.5704e-014 -1.03368e-014
rhumerus -27.4288 10.8173 -95.0187
rradius 62.2055
rwrist -1.57812
rhand -14.8942 15.3753
rfingers 7.12502
rthumb 11.2668 -14.3021
lclavicle 1.5704e-014 -1.03368e-014
lhumerus -53.9582 37.2798 57.4391
lradius 16.5673
lwrist -23.5357
lhand -21.962 21.1221
lfingers 7.12502
lthumb 4.44542 51.0554
rfemur 7.09533 3.43149 30.7635
rtibia 11.9921
rfoot -17.1579 -4.69773
rtoes 9.52543
lfemur -35.7198 -2.80193 -7.38608
ltibia 32.6872
lfoot -10.1821 12.7061
ltoes -14.1793
132
root 5.58033 16.9355 0.972327 -26.0611 -79.9885 37.0782
lowerback 5.27519 0.531874 0.605247
upperback -1.35566 0.759961 0.209643
thorax -4.35496 0.363691 -0.191095
lowerneck -18.2505 -5.44435 -10.6716
upperneck 20.9641 -6.22035 6.48319
head 10.2636 -3.02606 3.16253
rclavicle -1.05356e-014 1.59028e-014
rhumerus -27.252 9.19222 -94.7738
rradius 62.4232
rwrist -1.78557
rhand -14.9659 15.3138
rfingers 7.12502
rthumb 11.1976 -14.3674
lclavicle -1.05356e-014 1.59028e-014
lhumerus -52.3628 36.3616 58.757
lradius 16.6085
lwrist -22.8738
lhand -22.3644 20.9205
lfingers 7.12502
lthumb 4.05687 50.8616
rfemur 8.35875 3.71422 31.0924
rtibia 9.91985
rfoot -16.2932 -5.25147
rtoes 11.1259
lfemur -36.7806 -2.07477 -7.07255
ltibia 30.8368
lfoot -9.94882 14.4826
ltoes -16.3552
133
root 5.42997 16.9162 1.08866 -27.5711 -81.1828 38.8743
lowerback 5.31364 0.809736 0.720487
upperback -1.45765 1.14719 0.399834
thorax -4.48171 0.554275 -0.0953352
lowerneck -18.3571 -5.49123 -10.6022
upperneck 20.9516 -6.27919 6.4288
head 10.2803 -3.05095 3.12072
rclavicle -9.93923e-016 -3.10104e-014
rhumerus -27.5864 8.07221 -94.2705
rradius 62.7644
rwrist -1.99168
rhand -15.6477 15.2585
rfingers 7.12502
rthumb 10.54 -14.4572
lclavicle -9.93923e-016 -3.10104e-014
lhumerus -50.7375 34.8231 60.8223
lradius 16.9785
lwrist -21.0805
lhand -22.4626 20.7396
lfingers 7.12502
lthumb 3.9621 50.6825
rfemur 9.89802 4.58025 31.2222
rtibia 7.81915
rfoot -15.1978 -5.51074
rtoes 12.2786
lfemur -37.3297 -1.43278 -6.67922
ltibia 28.9705
lfoot -10.6101 16.4287
ltoes -14.5547
134
root 5.26062 16.904 1.21173 -36.7728 -81.9226 48.0407
lowerback 5.56841 1.07483 -0.267323
upperback -1.46101 1.43617 0.494621
thorax -4.65479 0.726259 0.52508
lowerneck -18.4724 -5.38566 -10.9548
upperneck 21.0127 -5.99761 6.35754
head 10.3076 -2.95673 3.19508
rclavicle -6.36111e-015 -6.36111e-015
rhumerus -28.1262 7.4355 -93.6955
rradius 62.9601
rwrist -2.08112
rhand -16.7471 14.851
rfingers 7.12502
rthumb 9.47933 -14.9158
lclavicle -6.36111e-015 -6.36111e-015
lhumerus -49.7347 33.689 62.5213
lradius 17.5775
lwrist -19.797
lhand -22.7197 20.8776
lfingers 7.12502
lthumb 3.71379 50.825
rfemur 12.3627 5.54256 30.2035
rtibia 4.93503
rfoot -13.6946 -5.73348
rtoes 10.8669
lfemur -37.1841 -1.30045 -7.31762
ltibia 27.1908
lfoot -11.4036 18.6892
ltoes -13.3979
135
root 5.08738 16.8975 1.34545 -46.9263 -81.7239 58.059
lowerback 5.83524 1.15571 -1.52271
upperback -1.47637 1.44564 0.423294
thorax -4.853 0.767076 1.14913
lowerneck -18.327 -5.20121 -10.9676
upperneck 20.9369 -5.65374 5.97679
head 10.2091 -2.84612 3.11337
rclavicle 1.51076e-014 1.90833e-014
rhumerus -28.7417 6.6282 -93.0265
rradius 63.0055
rwrist -2.34652
rhand -17.4355 14.5712
rfingers 7.12502
rthumb 8.81508 -15.2247
lclavicle 1.51076e-014 1.90833e-014
lhumerus -48.811 32.2358 64.3924
lradius 18.3917
lwrist -17.7523
lhand -22.818 21.5699
lfingers 7.12502
lthumb 3.61888 51.5189
rfemur 15.9706 6.00228 28.6514
rtibia -3.18055e-015
rfoot -11.4611 -5.39437
rtoes 9.9705
lfemur -37.0487 -2.25939 -8.28223
ltibia 25.6026
lfoot -12.0386 21.0955
ltoes -13.1731
136
root 4.92885 16.875 1.48676 -47.3656 -82.2827 58.2243
lowerback 6.35758 1.01171 -1.19431
upperback -1.56006 1.29188 0.833399
thorax -5.23423 0.689774 1.39657
lowerneck -18.0649 -5.01643 -10.8745
upperneck 20.8138 -5.36503 5.63156
head 10.0761 -2.74959 3.01957
rclavicle 1.51076e-014 -1.59028e-014
rhumerus -29.3767 6.10564 -92.2912
rradius 62.8435
rwrist -2.61555
rhand -18.185 14.5638
rfingers 7.12502
rthumb 8.09176 -15.2613
lclavicle 1.51076e-014 -1.59028e-014
lhumerus -48.5727 31.6772 65.3886
lradius 19.4418
lwrist -16.6466
lhand -22.4826 22.0158
lfingers 7.12502
lthumb 3.94279 51.9591
rfemur 16.9149 6.04043 28.7529
rtibia -3.81667e-014
rfoot -11.709 -5.16308
rtoes 10.5824
lfemur -37.1676 -3.68671 -7.31714
ltibia 24.1088
lfoot -12.6635 23.1542
ltoes -12.3101
137
root 4.78098 16.8472 1.61252 -41.5111 -83.2268 52.4021
lowerback 6.65816 0.868712 -0.147826
upperback -1.65559 1.21165 1.34071
thorax -5.49138 0.624314 1.34022
lowerneck -18.0657 -4.93254 -10.8075
upperneck 20.6681 -5.27061 5.68064
head 10.0142 -2.69231 3.03904
rclavicle 8.74653e-015 4.13472e-014
rhumerus -29.8245 5.32684 -91.6329
rradius 62.5803
rwrist -2.98557
rhand -19.1154 14.5179
rfingers 7.12502
rthumb 7.19377 -15.3399
lclavicle 8.74653e-015 4.13472e-014
lhumerus -48.044 31.1985 66.2304
lradius 20.5824
lwrist -15.7492
lhand -22.9916 22.1208
lfingers 7.12502
lthumb 3.45122 52.0726
rfemur 17.3666 5.8871 29.6633
rtibia 3.49861e-014
rfoot -11.7415 -4.7914
rtoes 11.4401
lfemur -37.9046 -4.5116 -5.69944
ltibia 22.8881
lfoot -12.843 24.1145
ltoes -11.7882
138
root 4.59408 16.8514 1.75353 -52.3549 -82.9891 62.748
lowerback 7.01397 1.15698 -0.982541
upperback -1.35246 1.50982 1.08446
thorax -5.3989 0.793558 1.5048
lowerneck -18.2292 -4.98025 -10.7348
upperneck 20.5711 -5.33607 5.70309
head 10.0142 -2.7082 3.02258
rclavicle 1.64991e-014 6.36111e-015
rhumerus -30.1024 3.94327 -90.716
rradius 62.1887
rwrist -3.24668
rhand -19.1882 14.3914
rfingers 7.12502
rthumb 7.12353 -15.4687
lclavicle 1.64991e-014 6.36111e-015
lhumerus -46.6883 29.5141 68.0241
lradius 21.7256
lwrist -13.4624
lhand -23.4115 22.8546
lfingers 7.12502
lthumb 3.04572 52.8126
rfemur 18.7944 6.30984 28.0551
rtibia 9.54166e-015
rfoot -11.8517 -4.09426
rtoes 12.2253
lfemur -37.3919 -6.6021 -6.14103
ltibia 22.0667
lfoot -13.418 26.2278
ltoes -11.8211
139
root 4.41556 16.8449 1.90368 -56.1994 -82.9916 66.154
lowerback 7.40708 1.22462 -0.841792
upperback -1.20438 1.60701 1.0314
thorax -5.4647 0.835216 1.35293
lowerneck -18.2426 -4.99647 -10.757
upperneck 20.5719 -5.33613 5.64255
head 10.0162 -2.71665 3.00429
rclavicle -4.96962e-015 -1.43125e-014
rhumerus -30.4099 2.50052 -89.8329
rradius 61.4342
rwrist -3.56935
rhand -18.6466 14.4002
rfingers 7.12502
rthumb 7.64623 -15.4416
lclavicle -4.96962e-015 -1.43125e-014
lhumerus -45.6872 27.8719 69.4791
lradius 22.9316
lwrist -11.0926
lhand -22.623 23.7272
lfingers 7.12502
lthumb 3.80719 53.673
rfemur 19.992 6.35671 27.2735
rtibia 2.22639e-014
rfoot -11.6475 -3.47035
rtoes 11.8122
lfemur -37.1539 -6.75309 -6.87195
ltibia 21.4888
lfoot -13.1164 25.9071
ltoes -12.8101
140
root 4.23464 16.8283 2.00566 -62.1158 -83.5965 72.0595
lowerback 7.38679 1.50125 -1.06222
upperback -1.19362 1.96641 1.25567
thorax -5.46953 1.02277 1.66717
lowerneck -18.0771 -5.0697 -10.9022
upperneck 20.3455 -5.43183 5.75273
head 9.92168 -2.75835 3.0533
rclavicle 5.1684e-015 2.06736e-014
rhumerus -30.6769 1.23098 -88.9979
rradius 60.401
rwrist -4.17588
rhand -19.0688 14.3229
rfingers 7.12502
rthumb 7.23873 -15.5333
lclavicle 5.1684e-015 2.06736e-014
lhumerus -44.912 26.787 70.3623
lradius 24.0953
lwrist -9.45887
lhand -21.5336 23.8988
lfingers 7.12502
lthumb 4.85912 53.8231
rfemur 20.6655 6.94326 27.1623
rtibia -3.18055e-015
rfoot -11.0205 -3.22948
rtoes 8.51827
lfemur -37.1017 -4.18854 -7.98102
ltibia 21.0465
lfoot -12.5413 23.4397
ltoes -13.2082
